# xmcd
#
# Track frame offsets:
#	150
#	9527
#	23837
#	36577
#	47587
#	61382
#	72630
#	84710
#	94007
#	103250
#	114755
#	123817
#	136077
#	149330
#	162017
#	171612
#	185467
#	198515
#	211172
#	222867
#	234992
#	245187
#
# Disc length: 3408 seconds
#
# Revision: 0
# Processed by: cddbd v1.5.1PL0 Copyright (c) Steve Scherf et al.
# Submitted via: audiograbber 1.80.04
#
DISCID=3f0d4e16
DTITLE=Denis Champoux - 22 Grands Succès À La Guitare
DYEAR=1900
DGENRE=Pop
TTITLE0=Don't Be Cruel
TTITLE1=It's Now Or Never
TTITLE2=Can't Help Falling In Love
TTITLE3=Stuck On You
TTITLE4=Pledging My Love
TTITLE5=I Got A Woman
TTITLE6=Return To Sender
TTITLE7=Loving You
TTITLE8=Blue Suede Shoes
TTITLE9=Love Me Tender
TTITLE10=All Shook Up
TTITLE11=I Want You I Need You
TTITLE12=Folsom Prison Blues
TTITLE13=Ring Of Fire
TTITLE14=Guess Things Happen That Way
TTITLE15=Give My Love To Rose
TTITLE16=Don't Take Your Guns To Town
TTITLE17=Ghost Rider In The Sky
TTITLE18=I Walk The Line
TTITLE19=Train Of Love
TTITLE20=Ballad Of A Teenage Queen
TTITLE21=There You Go
EXTD=
EXTT0=
EXTT1=
EXTT2=
EXTT3=
EXTT4=
EXTT5=
EXTT6=
EXTT7=
EXTT8=
EXTT9=
EXTT10=
EXTT11=
EXTT12=
EXTT13=
EXTT14=
EXTT15=
EXTT16=
EXTT17=
EXTT18=
EXTT19=
EXTT20=
EXTT21=
PLAYORDER=
